<?xml version="1.0" encoding="utf-8"?>
<!-- Generator: Adobe Illustrator 16.0.0, SVG Export Plug-In . SVG Version: 6.00 Build 0)  -->
<!DOCTYPE svg PUBLIC "-//W3C//DTD SVG 1.1//EN" "http://www.w3.org/Graphics/SVG/1.1/DTD/svg11.dtd">
<svg version="1.1" id="Layer_1" xmlns="http://www.w3.org/2000/svg" xmlns:xlink="http://www.w3.org/1999/xlink" x="0px" y="0px"
	 width="300px" height="117.036px" viewBox="0 0 300 117.036" enable-background="new 0 0 300 117.036" xml:space="preserve">
<g>
	<polygon fill="#FFE600" points="65.91,54.341 46.808,1.296 51.446,0 65.91,10.383 	"/>
	<polygon fill="#FFC30C" points="64.534,55.652 26.016,14.228 29.779,11.113 47.209,14.818 	"/>
	<polygon fill="#F7971D" points="63.328,56.829 10.311,34.405 12.569,30.018 30.417,26.344 	"/>
	<polygon fill="#F37C20" points="61.599,58.03 0,55.599 0.41,50.834 14.637,41.447 	"/>
	<polygon fill="#D30E50" points="65.91,62.692 46.808,115.744 51.446,117.036 65.91,106.653 	"/>
	<polygon fill="#EE3953" points="64.534,62.101 26.016,103.524 29.779,106.641 47.202,102.935 	"/>
	<polygon fill="#EF4938" points="63.328,60.748 10.306,83.165 12.564,87.554 30.417,91.223 	"/>
	<polygon fill="#F16522" points="61.603,59.188 0,61.616 0.41,66.379 14.637,75.767 	"/>
	<g>
		<g>
			<path fill="#626366" d="M101.634,24.677c0.383,0,0.383,0.278,0.383,0.52l-0.28,6.64c-0.033,0.485-0.278,0.485-0.555,0.485h-2.573
				c-0.243,0-0.453-0.17-0.52-0.485l-0.592-3.026c-0.036-0.207-0.141-0.414-0.454-0.414l-3.301-0.105v16.898
				c0,0.556,0.139,0.766,0.903,0.833l1.876,0.21c0.209,0.034,0.349,0.175,0.349,0.38v2.749c0,0.208-0.104,0.349-0.385,0.349H85.432
				c-0.278,0-0.384-0.104-0.384-0.349v-2.712c0-0.241,0.105-0.382,0.348-0.416l1.878-0.21c0.763-0.067,0.904-0.312,0.904-0.833
				V28.292l-3.303,0.105c-0.244,0-0.418,0.139-0.453,0.414l-0.592,3.026c-0.067,0.315-0.275,0.485-0.52,0.485h-2.537
				c-0.278,0-0.522,0-0.555-0.485l-0.28-6.64c0-0.242,0-0.52,0.382-0.52H101.634z"/>
			<path fill="#626366" d="M129.029,46.198c0.314,0.035,0.347,0.139,0.347,0.415v2.714c0,0.243-0.104,0.383-0.382,0.383h-8.971
				c-0.243,0-0.381-0.104-0.381-0.349v-2.749c0-0.241,0.069-0.346,0.313-0.38l0.868-0.105c0.764-0.105,0.905-0.276,0.905-0.835
				v-6.464H111.47v6.464c0,0.559,0.14,0.766,0.906,0.835l0.833,0.07c0.311,0.035,0.347,0.139,0.347,0.415v2.714
				c0,0.243-0.104,0.383-0.383,0.383h-8.97c-0.243,0-0.38-0.104-0.38-0.349v-2.749c0-0.241,0.07-0.346,0.312-0.38l0.87-0.105
				c0.763-0.105,0.901-0.276,0.901-0.835V29.092c0-0.556-0.139-0.731-0.901-0.835l-0.835-0.103
				c-0.242-0.036-0.347-0.177-0.347-0.419v-2.711c0-0.243,0.07-0.347,0.347-0.347h9.04c0.279,0,0.347,0.104,0.347,0.347v2.642
				c0,0.382-0.036,0.453-0.347,0.489l-0.833,0.103c-0.766,0.104-0.906,0.279-0.906,0.835v6.328h10.258v-6.328
				c0-0.556-0.141-0.731-0.905-0.835l-0.833-0.103c-0.245-0.036-0.349-0.177-0.349-0.419v-2.711c0-0.243,0.069-0.347,0.349-0.347
				h9.039c0.278,0,0.347,0.104,0.347,0.347v2.642c0,0.382-0.032,0.453-0.347,0.489l-0.836,0.103
				c-0.764,0.104-0.904,0.279-0.904,0.835v16.201c0,0.559,0.141,0.766,0.904,0.835L129.029,46.198z"/>
			<path fill="#626366" d="M133.682,49.709c-0.274,0-0.38-0.141-0.38-0.349v-2.815c0-0.242,0.105-0.383,0.348-0.418l0.834-0.105
				c0.765-0.103,0.901-0.171,0.901-0.833V29.195c0-0.591-0.137-0.731-0.901-0.834l-0.834-0.104
				c-0.242-0.036-0.348-0.174-0.348-0.417v-2.816c0-0.209,0.105-0.347,0.38-0.347h18.88c0.381,0,0.381,0.278,0.381,0.52l-0.278,6.64
				c-0.033,0.418-0.208,0.485-0.555,0.485h-2.608c-0.312,0-0.416-0.103-0.52-0.485l-0.557-2.33c-0.105-0.45-0.175-0.623-0.766-0.623
				l-6.711-0.175v6.468h7.477c0.452,0,0.591,0.138,0.591,0.591v2.85c0,0.452-0.139,0.591-0.696,0.591h-7.371v6.501l7.267-0.207
				c0.452,0,0.557-0.21,0.695-0.521l1.011-2.574c0.102-0.311,0.242-0.416,0.519-0.416h2.921c0.313,0,0.488,0.105,0.452,0.485
				l-0.696,6.709c-0.033,0.347-0.066,0.523-0.452,0.523H133.682z"/>
			<path fill="#626366" d="M177.105,46.198c0.311,0.035,0.347,0.139,0.347,0.415v2.714c0,0.243-0.105,0.383-0.383,0.383h-8.971
				c-0.244,0-0.383-0.104-0.383-0.349v-2.749c0-0.241,0.069-0.346,0.313-0.38l0.868-0.105c0.766-0.105,0.904-0.276,0.904-0.835
				V29.195c0-0.556-0.174-0.731-0.904-0.834l-0.832-0.104c-0.244-0.036-0.35-0.174-0.35-0.417v-2.816
				c0-0.138,0.105-0.347,0.383-0.347h10.397c6.814,0,9.979,1.807,9.979,6.884v2.226c0,5.074-3.409,7.091-9.979,7.091h-3.128v4.416
				c0,0.559,0.139,0.766,0.904,0.835L177.105,46.198z M175.367,28.502v8.552h2.571c3.687,0,4.834-1.253,4.834-3.755v-1.114
				c0-2.5-1.147-3.683-4.834-3.683H175.367z"/>
			<path fill="#626366" d="M192.189,41.609V29.092c0-0.556-0.139-0.731-0.802-0.835l-1.007-0.103
				c-0.208-0.036-0.311-0.177-0.311-0.419v-2.711c0-0.138,0.103-0.347,0.347-0.347h6.987c0.244,0,0.349,0.209,0.349,0.347v16.549
				c0,3.409,1.703,4.731,4.555,4.731c1.495,0,3.127-0.349,4.277-0.768V29.092c0-0.556-0.139-0.731-0.906-0.835l-0.833-0.103
				c-0.244-0.036-0.35-0.177-0.35-0.419v-2.711c0-0.243,0.069-0.347,0.35-0.347h9.04c0.277,0,0.347,0.104,0.347,0.347v2.642
				c0,0.382-0.034,0.453-0.347,0.489l-0.835,0.103c-0.766,0.104-0.904,0.279-0.904,0.835v16.201c0,0.559,0.139,0.729,0.801,0.835
				l1.008,0.105c0.208,0.034,0.313,0.175,0.313,0.416v2.712c0,0.139-0.105,0.349-0.348,0.349h-6.989
				c-0.244,0-0.347-0.21-0.347-0.349v-0.277c-1.462,0.731-3.65,0.938-5.459,0.938C195.216,50.022,192.189,47.866,192.189,41.609z"/>
			<path fill="#626366" d="M238.843,31.42c0,2.261-1.113,4.138-3.163,4.868c2.47,0.242,4.591,1.878,4.591,5.321v0.836
				c0,5.352-2.957,7.265-11.195,7.265h-10.503c-0.278,0-0.381-0.21-0.381-0.349v-2.815c0-0.242,0.103-0.383,0.35-0.418l0.832-0.105
				c0.766-0.103,0.904-0.276,0.904-0.833V29.195c0-0.556-0.175-0.731-0.904-0.834l-0.832-0.104c-0.247-0.036-0.35-0.174-0.35-0.417
				v-2.816c0-0.138,0.103-0.347,0.381-0.347h12.934c5.042,0,7.336,1.18,7.336,6.05V31.42z M225.84,28.568v5.981h4.557
				c2.33,0,3.373-1.111,3.373-2.85v-0.592c0-1.739-0.871-2.539-3.305-2.539H225.84z M225.84,38.443v7.267h3.652
				c3.476,0,5.214-0.59,5.214-2.989v-1.287c0-2.259-1.877-2.991-5.076-2.991H225.84z"/>
			<path fill="#626366" d="M243.465,49.709c-0.242,0-0.347-0.21-0.347-0.349v-2.815c0-0.242,0.104-0.383,0.311-0.418l1.012-0.105
				c0.66-0.103,0.799-0.276,0.799-0.833V29.092c0-0.556-0.139-0.731-0.904-0.835l-0.835-0.103c-0.241-0.036-0.347-0.177-0.347-0.419
				v-2.711c0-0.243,0.069-0.347,0.347-0.347h9.04c0.277,0,0.35,0.104,0.35,0.347v2.642c0,0.382-0.036,0.453-0.35,0.489l-0.835,0.103
				c-0.765,0.104-0.904,0.279-0.904,0.835V45.71l6.432-0.207c0.279,0,0.521-0.036,0.696-0.452l1.007-3.131
				c0.105-0.311,0.315-0.486,0.521-0.486h3.131c0.277,0,0.485,0.072,0.45,0.486l-0.694,7.267c0,0.245,0,0.488-0.383,0.523H243.465z"
				/>
			<path fill="#626366" d="M275.832,46.198c0.312,0.035,0.349,0.139,0.349,0.415v2.714c0,0.243-0.105,0.383-0.385,0.383h-8.967
				c-0.244,0-0.383-0.104-0.383-0.349v-2.749c0-0.241,0.069-0.346,0.313-0.38l0.87-0.105c0.764-0.105,0.902-0.276,0.902-0.835
				V29.092c0-0.556-0.139-0.731-0.902-0.835l-0.835-0.103c-0.246-0.036-0.349-0.177-0.349-0.419v-2.711
				c0-0.243,0.069-0.347,0.349-0.347h9.038c0.279,0,0.349,0.104,0.349,0.347v2.642c0,0.382-0.036,0.453-0.349,0.489l-0.833,0.103
				c-0.766,0.104-0.906,0.279-0.906,0.835v16.201c0,0.559,0.141,0.766,0.906,0.835L275.832,46.198z"/>
			<path fill="#626366" d="M285.703,40.496c0,3.616,1.529,5.25,6.571,5.25c2.225,0,4.766-0.314,6.574-0.625
				c0.52-0.103,0.902-0.037,0.902,0.59v2.99c0,0.452-0.07,0.626-0.66,0.768c-1.182,0.276-4.351,0.591-7.615,0.591
				c-9.874,0-11.715-3.583-11.715-9.596v-6.817c0-6.674,3.961-9.178,10.914-9.178c2.505,0,7.198,0.209,8.175,0.524
				c0.311,0.103,0.344,0.276,0.344,0.485l-0.275,6.36c0,0.348-0.209,0.485-0.557,0.485h-2.643c-0.314,0-0.453-0.17-0.522-0.485
				l-0.624-3.163c-0.732-0.106-2.086-0.21-3.861-0.21c-3.963,0-5.04,2.608-5.04,5.112L285.703,40.496z"/>
		</g>
	</g>
	<g>
		<g>
			<path fill="#626366" d="M81.451,93.869c-0.324,0-0.461-0.279-0.461-0.466v-3.751c0-0.328,0.137-0.512,0.417-0.558l1.343-0.139
				c0.882-0.142,1.067-0.371,1.067-1.114V66.387c0-0.744-0.185-0.974-1.204-1.114L81.5,65.134c-0.324-0.048-0.467-0.232-0.467-0.558
				v-3.612c0-0.325,0.093-0.464,0.467-0.464h12.048c0.371,0,0.462,0.139,0.462,0.464v3.521c0,0.51-0.045,0.601-0.462,0.648
				l-1.112,0.138c-1.019,0.141-1.206,0.37-1.206,1.114V88.54l8.575-0.28c0.372,0,0.697-0.045,0.927-0.603l1.344-4.168
				c0.139-0.419,0.417-0.651,0.695-0.651h4.171c0.37,0,0.647,0.094,0.602,0.651l-0.926,9.682c0,0.328,0,0.653-0.509,0.698H81.451z"
				/>
			<path fill="#626366" d="M124.605,89.185c0.416,0.048,0.461,0.187,0.461,0.56v3.612c0,0.325-0.139,0.512-0.509,0.512h-11.958
				c-0.323,0-0.51-0.141-0.51-0.466v-3.658c0-0.325,0.093-0.466,0.417-0.512l1.16-0.139c1.02-0.139,1.206-0.371,1.206-1.114V66.387
				c0-0.744-0.186-0.974-1.206-1.114l-1.113-0.138c-0.323-0.048-0.464-0.232-0.464-0.558v-3.612c0-0.325,0.093-0.464,0.464-0.464
				h12.052c0.368,0,0.461,0.139,0.461,0.464v3.521c0,0.51-0.045,0.601-0.461,0.648l-1.116,0.138
				c-1.019,0.141-1.204,0.37-1.204,1.114V87.98c0,0.743,0.186,1.021,1.204,1.114L124.605,89.185z"/>
			<path fill="#626366" d="M158.766,69.489c0,3.015-1.486,5.517-4.22,6.49c3.289,0.325,6.118,2.499,6.118,7.09v1.114
				c0,7.136-3.939,9.686-14.923,9.686h-13.997c-0.368,0-0.511-0.279-0.511-0.466v-3.751c0-0.328,0.143-0.512,0.467-0.558
				l1.112-0.139c1.019-0.142,1.204-0.371,1.204-1.114V66.525c0-0.743-0.233-0.974-1.204-1.112l-1.112-0.141
				c-0.324-0.046-0.467-0.232-0.467-0.554v-3.754c0-0.187,0.143-0.464,0.511-0.464h17.242c6.721,0,9.78,1.574,9.78,8.063V69.489z
				 M141.43,65.691v7.973h6.071c3.104,0,4.495-1.486,4.495-3.804v-0.784c0-2.32-1.158-3.385-4.403-3.385H141.43z M141.43,78.852
				v9.688h4.868c4.634,0,6.951-0.79,6.951-3.987v-1.715c0-3.014-2.505-3.985-6.769-3.985H141.43z"/>
			<path fill="#626366" d="M193.295,71.482c0,5.1-2.038,7.831-5.653,9.037c1.391,0.322,2.318,1.253,3.289,3.243l1.486,3.011
				c0.926,1.949,1.112,2.366,1.806,2.366c0.603,0,1.206-0.046,1.528-0.046c0.602,0,0.65,0.185,0.65,0.65v3.058
				c0,1.205-0.277,1.251-4.401,1.251c-3.894,0-5.006-0.51-6.583-3.847l-3.104-6.532c-0.926-1.95-2.04-2.366-3.107-2.411h-4.03v6.716
				c0,0.743,0.184,1.021,1.205,1.114l1.112,0.091c0.417,0.048,0.462,0.187,0.462,0.56v3.612c0,0.325-0.139,0.512-0.51,0.512h-11.958
				c-0.323,0-0.51-0.141-0.51-0.466v-3.658c0-0.325,0.093-0.466,0.418-0.512l1.16-0.139c1.02-0.139,1.206-0.371,1.206-1.114V66.525
				c0-0.743-0.234-0.974-1.206-1.112l-1.114-0.141c-0.323-0.046-0.464-0.232-0.464-0.554v-3.754c0-0.187,0.141-0.464,0.51-0.464
				h15.481c7.693,0,12.327,0.835,12.327,8.944V71.482z M180.227,65.227h-5.051v10.846h5.051c4.54,0,5.885-1.438,5.885-4.59v-2.038
				C186.111,66.756,184.767,65.227,180.227,65.227z"/>
			<path fill="#626366" d="M219.252,60.5c0.648,0,0.742,0.277,0.974,0.926L230.7,87.379c0.51,1.296,0.972,1.622,2.177,1.761
				l0.696,0.093c0.28,0.046,0.416,0.139,0.416,0.464v3.706c0,0.187-0.091,0.466-0.416,0.466h-12.093c-0.419,0-0.513,0-0.513-0.789
				v-3.198c0-0.323,0.14-0.51,0.371-0.558l1.393-0.184c0.507-0.046,0.739-0.417,0.416-1.206l-1.251-3.198h-12.56l-1.158,3.155
				c-0.231,0.648-0.093,1.249,0.603,1.342l1.158,0.139c0.232,0.048,0.368,0.234,0.368,0.558v3.383c0,0.416-0.088,0.557-0.509,0.557
				h-10.519c-0.234,0-0.416-0.141-0.416-0.466v-3.612c0-0.325,0.137-0.512,0.368-0.558l1.251-0.139
				c0.883-0.093,1.206-0.325,1.716-1.67l10.475-26.232c0.139-0.462,0.277-0.691,0.741-0.691H219.252z M211.002,80.196h9.084
				l-4.634-11.91L211.002,80.196z"/>
			<path fill="#626366" d="M264.907,71.482c0,5.1-2.038,7.831-5.655,9.037c1.393,0.322,2.32,1.253,3.292,3.243l1.485,3.011
				c0.926,1.949,1.112,2.366,1.806,2.366c0.601,0,1.206-0.046,1.528-0.046c0.604,0,0.651,0.185,0.651,0.65v3.058
				c0,1.205-0.28,1.251-4.404,1.251c-3.895,0-5.004-0.51-6.583-3.847l-3.104-6.532c-0.926-1.95-2.038-2.366-3.102-2.411h-4.033
				v6.716c0,0.743,0.185,1.021,1.206,1.114l1.112,0.091c0.416,0.048,0.461,0.187,0.461,0.56v3.612c0,0.325-0.139,0.512-0.509,0.512
				h-11.959c-0.322,0-0.51-0.141-0.51-0.466v-3.658c0-0.325,0.094-0.466,0.42-0.512l1.16-0.139c1.018-0.139,1.203-0.371,1.203-1.114
				V66.525c0-0.743-0.234-0.974-1.203-1.112l-1.115-0.141c-0.324-0.046-0.465-0.232-0.465-0.554v-3.754
				c0-0.187,0.141-0.464,0.51-0.464h15.482c7.692,0,12.326,0.835,12.326,8.944V71.482z M251.837,65.227h-5.049v10.846h5.049
				c4.542,0,5.887-1.438,5.887-4.59v-2.038C257.724,66.756,256.379,65.227,251.837,65.227z"/>
			<path fill="#626366" d="M290.726,89.233c0.601,0.091,0.787,0.139,0.787,0.787v3.383c0,0.279-0.139,0.466-0.555,0.466h-14.507
				c-0.323,0-0.464-0.141-0.464-0.466v-3.612c0-0.325,0.141-0.512,0.464-0.558l2.457-0.231c1.111-0.092,1.296-0.371,1.296-1.11
				v-6.305l-8.757-14.551c-0.88-1.483-1.392-1.622-2.318-1.763l-1.019-0.138c-0.326-0.048-0.417-0.187-0.417-0.648v-3.337
				c0-0.371,0.185-0.648,0.646-0.648h12.747c0.323,0,0.555,0.139,0.555,0.555v3.246c0,0.323-0.045,0.601-0.462,0.646l-1.392,0.139
				c-0.88,0.095-0.974,0.327-0.416,1.252l5.097,8.944l5.559-8.944c0.56-0.926,0.421-1.205-0.416-1.252l-1.11-0.091
				c-0.37-0.048-0.603-0.094-0.603-0.742v-3.198c0-0.325,0.139-0.555,0.555-0.555h11.076c0.328,0,0.467,0.229,0.467,0.555v3.521
				c0,0.325-0.188,0.51-0.467,0.558l-1.062,0.186c-1.16,0.139-1.205,0.322-2.041,1.619l-8.852,13.721v7.231
				c0,0.739,0.187,0.972,1.298,1.11L290.726,89.233z"/>
		</g>
	</g>
</g>
<g>
</g>
<g>
</g>
<g>
</g>
<g>
</g>
<g>
</g>
<g>
</g>
</svg>
